<svg width="42" height="42" viewBox="0 0 42 42" fill="none" xmlns="http://www.w3.org/2000/svg">
<path d="M29.75 0.166992C36.4167 0.166992 41.833 5.58333 41.833 12.25V29.75C41.833 32.9547 40.56 36.0279 38.2939 38.2939C36.0279 40.56 32.9547 41.833 29.75 41.833H12.25C5.58333 41.833 0.166992 36.4167 0.166992 29.75V12.25C0.166992 9.0453 1.43999 5.97212 3.70605 3.70605C5.97212 1.43999 9.0453 0.166992 12.25 0.166992H29.75ZM11.833 4.33301C9.844 4.33309 7.93672 5.12383 6.53027 6.53027C5.12383 7.93672 4.33309 9.844 4.33301 11.833V30.167C4.33318 34.3126 7.68743 37.6668 11.833 37.667H30.167C32.156 37.6669 34.0633 36.8762 35.4697 35.4697C36.8762 34.0633 37.6669 32.156 37.667 30.167V11.833C37.6668 7.68743 34.3126 4.33318 30.167 4.33301H11.833ZM21 10.583C23.7627 10.583 26.4117 11.6813 28.3652 13.6348C30.3187 15.5883 31.417 18.2373 31.417 21C31.417 23.7627 30.3187 26.4117 28.3652 28.3652C26.4117 30.3187 23.7627 31.417 21 31.417C18.2373 31.417 15.5883 30.3187 13.6348 28.3652C11.6813 26.4117 10.583 23.7627 10.583 21C10.583 18.2373 11.6813 15.5883 13.6348 13.6348C15.5883 11.6813 18.2373 10.583 21 10.583ZM21 14.75C19.3424 14.75 17.7532 15.409 16.5811 16.5811C15.409 17.7532 14.75 19.3424 14.75 21C14.75 22.6576 15.409 24.2468 16.5811 25.4189C17.7532 26.591 19.3424 27.25 21 27.25C22.6576 27.25 24.2468 26.591 25.4189 25.4189C26.591 24.2468 27.25 22.6576 27.25 21C27.25 19.3424 26.591 17.7532 25.4189 16.5811C24.2468 15.409 22.6576 14.75 21 14.75ZM31.9375 7.45801C32.6282 7.45801 33.2909 7.73233 33.7793 8.2207C34.2677 8.70908 34.542 9.37183 34.542 10.0625C34.542 10.7532 34.2677 11.4159 33.7793 11.9043C33.2909 12.3927 32.6282 12.667 31.9375 12.667C31.2468 12.667 30.5841 12.3927 30.0957 11.9043C29.6073 11.4159 29.333 10.7532 29.333 10.0625C29.333 9.37183 29.6073 8.70908 30.0957 8.2207C30.5841 7.73233 31.2468 7.45801 31.9375 7.45801Z" fill="white"/>
</svg>
