<svg width="40" height="44" viewBox="0 0 40 44" fill="none" xmlns="http://www.w3.org/2000/svg">
<path fill-rule="evenodd" clip-rule="evenodd" d="M12.1875 10.5311V8.4165C12.1875 6.3445 13.0106 4.35736 14.4757 2.89223C15.9408 1.4271 17.928 0.604004 20 0.604004C22.072 0.604004 24.0591 1.4271 25.5242 2.89223C26.9894 4.35736 27.8125 6.3445 27.8125 8.4165V10.5311C30.4937 10.6123 32.1354 10.8998 33.3875 11.9394C35.1229 13.3811 35.5812 15.8186 36.4958 20.6957L38.0583 29.029C39.3437 35.8873 39.9854 39.3165 38.1125 41.5748C36.2375 43.8332 32.7479 43.8332 25.7708 43.8332H14.2291C7.24997 43.8332 3.76247 43.8332 1.88747 41.5748C0.0124734 39.3165 0.658307 35.8873 1.94164 29.029L3.50414 20.6957C4.42081 15.8207 4.87706 13.3811 6.61247 11.9394C7.86456 10.8998 9.50622 10.6123 12.1875 10.5311ZM15.3125 8.4165C15.3125 7.1733 15.8063 5.98102 16.6854 5.10194C17.5645 4.22286 18.7568 3.729 20 3.729C21.2432 3.729 22.4355 4.22286 23.3145 5.10194C24.1936 5.98102 24.6875 7.1733 24.6875 8.4165V10.4998H15.3125V8.4165Z" fill="white"/>
</svg>
