<svg width="34" height="38" viewBox="0 0 34 38" fill="none" xmlns="http://www.w3.org/2000/svg">
<path d="M26.5833 6.125C25.1595 4.49901 24.3747 2.41125 24.375 0.25H17.9375V26.0833C17.8888 27.4816 17.299 28.8064 16.2923 29.7781C15.2856 30.7498 13.9408 31.2925 12.5416 31.2917C9.58329 31.2917 7.12496 28.875 7.12496 25.875C7.12496 22.2917 10.5833 19.6042 14.1458 20.7083V14.125C6.95829 13.1667 0.666626 18.75 0.666626 25.875C0.666626 32.8125 6.41663 37.75 12.5208 37.75C19.0625 37.75 24.375 32.4375 24.375 25.875V12.7708C26.9854 14.6455 30.1195 15.6513 33.3333 15.6458V9.20833C33.3333 9.20833 29.4166 9.39583 26.5833 6.125Z" fill="white"/>
</svg>
