<svg width="38" height="38" viewBox="0 0 38 38" fill="none" xmlns="http://www.w3.org/2000/svg">
<path d="M31.925 6.00166C30.2439 4.30419 28.2418 2.95827 26.0354 2.04233C23.829 1.12639 21.4623 0.658749 19.0733 0.666664C9.0633 0.666664 0.904968 8.825 0.904968 18.835C0.904968 22.0433 1.7483 25.16 3.32497 27.91L0.758301 37.3333L10.3833 34.8033C13.0416 36.2517 16.03 37.0217 19.0733 37.0217C29.0833 37.0217 37.2416 28.8633 37.2416 18.8533C37.2416 13.995 35.3533 9.43 31.925 6.00166ZM19.0733 33.9417C16.36 33.9417 13.7016 33.2083 11.3733 31.8333L10.8233 31.5033L5.1033 33.0067L6.62497 27.4333L6.2583 26.865C4.75047 24.4579 3.95 21.6753 3.9483 18.835C3.9483 10.5117 10.7316 3.72833 19.055 3.72833C23.0883 3.72833 26.8833 5.305 29.725 8.165C31.1323 9.56541 32.2475 11.2313 33.0059 13.0661C33.7644 14.9009 34.151 16.868 34.1433 18.8533C34.18 27.1767 27.3966 33.9417 19.0733 33.9417ZM27.36 22.6483C26.9016 22.4283 24.665 21.3283 24.2616 21.1633C23.84 21.0167 23.5466 20.9433 23.235 21.3833C22.9233 21.8417 22.0616 22.8683 21.805 23.1617C21.5483 23.4733 21.2733 23.51 20.815 23.2717C20.3566 23.0517 18.89 22.5567 17.1666 21.0167C15.81 19.8067 14.9116 18.3217 14.6366 17.8633C14.38 17.405 14.6 17.1667 14.8383 16.9283C15.04 16.7267 15.2966 16.3967 15.5166 16.14C15.7366 15.8833 15.8283 15.6817 15.975 15.3883C16.1216 15.0767 16.0483 14.82 15.9383 14.6C15.8283 14.38 14.9116 12.1433 14.545 11.2267C14.1783 10.3467 13.7933 10.4567 13.5183 10.4383H12.6383C12.3266 10.4383 11.85 10.5483 11.4283 11.0067C11.025 11.465 9.85163 12.565 9.85163 14.8017C9.85163 17.0383 11.4833 19.2017 11.7033 19.495C11.9233 19.8067 14.9116 24.39 19.4583 26.3517C20.54 26.8283 21.3833 27.1033 22.0433 27.305C23.125 27.6533 24.115 27.5983 24.9033 27.4883C25.7833 27.36 27.5983 26.3883 27.965 25.325C28.35 24.2617 28.35 23.3633 28.2216 23.1617C28.0933 22.96 27.8183 22.8683 27.36 22.6483Z" fill="white"/>
</svg>
